<svg width="24" height="27" viewBox="0 0 24 27" fill="none" xmlns="http://www.w3.org/2000/svg">
<path d="M9.13478 22.8217V19.5728C9.13478 18.7435 9.77217 18.0712 10.5584 18.0712H13.4326C13.8102 18.0712 14.1723 18.2294 14.4393 18.511C14.7063 18.7926 14.8563 19.1746 14.8563 19.5728V22.8217C14.8539 23.1665 14.9821 23.498 15.2124 23.7427C15.4427 23.9874 15.7561 24.125 16.0829 24.125H18.0438C18.9596 24.1275 19.8388 23.7455 20.4872 23.0634C21.1356 22.3812 21.5 21.4549 21.5 20.4889V11.2335C21.5 10.4532 21.1721 9.71308 20.6046 9.21246L13.934 3.59311C12.7737 2.60785 11.1111 2.63966 9.98539 3.66867L3.46701 9.21246C2.87274 9.69832 2.51755 10.4407 2.5 11.2335V20.4795C2.5 22.4928 4.04738 24.125 5.95617 24.125H7.87229C8.55123 24.125 9.103 23.5472 9.10792 22.8311L9.13478 22.8217Z" fill="#1E1E1E"/>
</svg>
