<svg width="39" height="38" viewBox="0 0 39 38" fill="none" xmlns="http://www.w3.org/2000/svg">
<path d="M18.4083 37.9721C21.929 37.9721 24.3454 34.382 24.1472 30.8669C24.0232 28.6674 24.3435 26.4688 25.7061 25.1157C27.0469 23.7841 29.2054 23.4619 31.3691 23.5753C34.8851 23.7594 38.4731 21.3433 38.4731 17.8225C38.4731 15.0459 36.1372 12.8875 33.5733 11.8216C30.4611 10.5277 27.9719 8.03815 26.6786 4.92567C25.6137 2.36279 23.4562 0.0279534 20.6809 0.0279533C17.1601 0.0279532 14.7453 3.61732 14.931 7.13316C15.0454 9.29866 14.7225 11.4579 13.3854 12.795C12.0483 14.1321 9.88902 14.455 7.72352 14.3406C4.20768 14.155 0.618315 16.5698 0.618315 20.0905C0.618315 22.8659 2.9546 25.0244 5.51285 26.1005C8.63222 27.4125 11.1263 29.9373 12.4187 33.075C13.4752 35.64 15.6342 37.9721 18.4083 37.9721Z" fill="white"/>
</svg>
